<svg height="512" viewBox="0 0 56 58" width="512" xmlns="http://www.w3.org/2000/svg"><g id="023---Moisturising-Face" fill="none"><path id="Shape" d="m11.95 35.21-.62.01c-1.93-.39-5.94-2.01-5.94-8.72 0-4.719 1.687-6.594 5.24-3.83-.0569545 4.2174695.3861357 8.4268272 1.32 12.54z" fill="#f09372"/><path id="Shape" d="m50.65 26.5c0 7.16-4.56 8.52-6.3 8.78l-.26-.07c.9337528-4.1131912 1.3768417-8.3225357 1.32-12.54 3.627-2.82 5.24-.77 5.24 3.83z" fill="#f09372"/><path id="Shape" d="m46.125 21.078c0 5.572-.559 8.337-2.035 14.132-.5796197 2.4302073-1.4915396 4.7688947-2.71 6.95-1.81 1.45-2.53 4.5-4.46 5.14-1.2773033.4566971-2.3931204 1.2770486-3.21 2.36-.63.78-2.62.15-2.97 1.08-1.8101872.3504297-3.6711038.3470339-5.48-.01-.36-.92-1.84.21-2.47-.57-.8168796-1.0829514-1.9326967-1.9033029-3.21-2.36-1.9-.63-3.09-4.15-4.88-5.59-1.2367942-2.1945406-2.1623288-4.5504468-2.75-7-1.929-7.575-2.05-9.925-2.05-14.264 2.622-4.61 9.12-14.346 18.1-19.556 9.02 5.24 15.525 15.098 18.125 19.688z" fill="#f9c795"/><path id="Shape" d="m28 2.39c-8.98 5.21-14.77 13.89-17.39 18.5-.26.47-.49.9-.7 1.27-.07-.04-.14-.09-.21-.14l.01-.02c-4.53854931-5.6746843-6.50959154-12.98275814-5.44-20.17l.41-1.83h18.32c1.7291697.65871212 3.4014355 1.45805521 5 2.39z" fill="#9bc8c2"/><path id="Shape" d="m47.23 20.77c-1.006 1.395-.97 1.17-.92 1.27-.07.05-.14.09-.21.14-.122-.2-.9-1.735-2.33-3.98-5.049-7.853-12.103-14.95-20.77-18.2h28.32l.41 1.83c.9812163 6.6566683-.6295154 13.436059-4.5 18.94z" fill="#41767f"/><path id="Shape" d="m24 21.841c-.233 0 0 .055-4.195-1.344-1.1062597-.3718377-2.315244-.2861503-3.358.238-.319984.1630317-.7028178.1419628-1.0029789-.055198-.3001612-.1971608-.471552-.5401342-.4490237-.8985495.0225284-.3584154.2355161-.6772285.5580026-.8352525 1.516517-.7625903 3.2748992-.8875204 4.884-.347l3.879 1.293c.465753.1547317.7503816.6245882.6718345 1.1090447-.0785471.4844566-.4970518.840311-.9878345.8399553z" fill="#cb8252"/><path id="Shape" d="m32 21.841c-.4907827.0003557-.9092874-.3554987-.9878345-.8399553-.0785471-.4844565.2060815-.954313.6718345-1.1090447l3.878-1.292c1.6094452-.5404622 3.3681118-.4155374 4.885.347.3224865.158024.5354742.4768371.5580026.8352525.0225283.3584153-.1488625.7013887-.4490237.8985495-.3001611.1971608-.6829949.2182297-1.0029789.055198-1.0413527-.5230991-2.2486408-.6080737-3.353-.236-4.213 1.4-3.974 1.341-4.2 1.341z" fill="#cb8252"/><path id="Shape" d="m24.445 33.832c-.4595009-.306518-.583518-.9274991-.277-1.387.3065181-.4595009.9274991-.583518 1.387-.277 1.4799362.9891491 3.4100638.9891491 4.89 0 .297245-.1982824.6776931-.2229246.9980332-.0646441.3203401.1582804.5319049.4754371.555.832s-.1457882.6983617-.4430332.8966441c-2.1514356 1.439441-4.9585644 1.439441-7.11 0z" fill="#f09372"/><path id="Shape" d="m28 42c3.521 0 5.869-2.4 4.7-2.4s-3.526-1.6-4.7-1.6-3.521 1.6-4.695 1.6 1.174 2.4 4.695 2.4z" fill="#df4d60"/><path id="Shape" d="m29 47h-2c-.5522847 0-1-.4477153-1-1s.4477153-1 1-1h2c.5522847 0 1 .4477153 1 1s-.4477153 1-1 1z" fill="#f09372"/><path id="Shape" d="m24.25.51c-3.6149606 1.68865204-6.839744 4.10979355-9.47 7.11-.209018.31444692-.5773256.48435474-.9522027.43927057-.374877-.04508418-.6923976-.29747235-.8209007-.65251088s-.0460757-.75218441.2131034-1.02675969c2.0864302-2.58515693 4.6451602-4.75023618 7.54-6.38h2.24c.172.067.876.34 1.25.51z" fill="#547580"/><circle id="Oval" cx="11" cy="10" fill="#547580" r="1"/><path id="Shape" d="m45.93 21.87c-.545-1.017-1.385-2.454-2.16-3.67-.5-5.2-2.18-8.83-5.1-11.06-.3078935-.20876851-.4744549-.57119002-.4323723-.94080028.0420825-.36961025.2858528-.68531279.6327968-.81952375.3469439-.13421096.7397118-.0647453 1.0195755.18032403 4.896 3.75 6.04 10.14 6.04 16.31z" fill="#3f5c6c"/><path id="Shape" d="m26 54.8v3.2h-10.85c-8.367-8.377-9.209-8.9-10.3-11.28-4.7-10.343-4.61-9.92-4.61-10.67.00255516-1.1634315.82107055-2.1654447 1.9605904-2.4001229s2.28735474.3623754 2.7494096 1.4301229c2.6 6.083 2.649 6.26 3 6.87.147-.08.049-.03.43-.22 1.46872565-1.4756803 3.8216668-1.5842108 5.42-.25 2.0178717 1.7887607 4.3061922 3.2468057 6.78 4.32 2.779.926 5.42 4.356 5.42 9z" fill="#fdd7ad"/><path id="Shape" d="m16.89 50.1c-.3945538.386207-1.0254462.386207-1.42 0-5.371-5.392-6.255-6.055-7.4-8.19-.00105679-.0075808-.00456946-.0146061-.01-.02l.32-.16c.39097432-.3897205.85707385-.6959173 1.37-.9.03876047.0365631.06942059.08085.09.13 1.012 1.883 1.769 2.429 7.06 7.72.1879965.1890965.2926865.4454436.2908087.7120832-.0018777.2666396-.1101676.5214867-.3008087.7079168z" fill="#f9c795"/><path id="Shape" d="m55.76 36.05c0 .755.124.254-4.61 10.67-1.106 2.417-1.816 2.785-10.3 11.28h-10.85v-3.2c0-4.715 2.7-8.094 5.42-9 2.1702946-.8833297 4.1830616-2.1126036 5.96-3.64 0-.0055228.0044772-.01.01-.01.28-.23.55-.45.81-.67 1.598658-1.3332456 3.9508621-1.2247491 5.42.25l.43.22c.512-1.022-.545 1.424 3-6.87.4620549-1.0677475 1.6098897-1.6648011 2.7494096-1.4301229s1.9580352 1.2366914 1.9605904 2.4001229z" fill="#fdd7ad"/><path id="Shape" d="m45.83 44.96-5.13 5.14c-.1940357.1852585-.4517284.2890514-.72.29-.4062651.0023626-.77358-.2413038-.929371-.6165185-.1557909-.3752147-.0690889-.807391.219371-1.0934815 5.359-5.37 6.065-5.868 7.06-7.72.0107288-.0270508.027891-.0510779.05-.07.4638185.1970792.8849481.4823605 1.24.84l.43.22c.45-.901-.266 1.035-2.22 3.01z" fill="#f9c795"/><g fill="#393f4a"><path id="Shape" d="m22.679 25.053c-.035.011-3.445 1.123-6.079-.853-.3960804-.2952152-.9483792-.2569791-1.3.09-.3511209.3632656-.8045884.6109286-1.3.71-.5522847 0-1 .4477153-1 1s.4477153 1 1 1c.7467355-.0400537 1.4641538-.3038155 2.059-.757.151.09.3.17.454.247-.1340903.2034842-.3087328.3771054-.513.51-.5522847 0-1 .4477153-1 1 0 1.229 1.847 1.7 3.473-.819 1.6111637.3291562 3.2791971.2483506 4.851-.235.5164777-.1826155.7898886-.7467849.6132077-1.2653227-.1766809-.5185379-.7376779-.7984003-1.2582077-.6276773z"/><path id="Shape" d="m42 25c-.4926367-.0993298-.9435153-.3458659-1.293-.707-.3518492-.3518644-.9088739-.3914997-1.307-.093-2.621 1.965-6.008.877-6.078.853-.5227375-.178388-1.091112.1007625-1.2695.6235-.1783879.5227375.1007625 1.091112.6235 1.2695 1.5716688.4841161 3.2398958.5649311 4.851.235.508.789 1.379 1.819 2.473 1.819.5570459.0028164 1.0126955-.4430247 1.022-1 .0056485-.2632661-.0949969-.5177078-.2792108-.7058732-.1842139-.1881653-.4364625-.2941874-.6997892-.2941268-.2215905-.1272115-.4105663-.3042052-.552-.517.15-.077.3-.155.45-.245.5942558.4549744 1.3117255.7204974 2.059.762.5522847 0 1-.4477153 1-1s-.4477153-1-1-1z"/></g></g></svg>